<?xml version="1.0" encoding="UTF-8"?>
<svg xmlns="http://www.w3.org/2000/svg" xmlns:xlink="http://www.w3.org/1999/xlink" width="360px" height="540px" viewBox="0 0 360 540" version="1.1">
<g id="surface1">
<path style=" stroke:none;fill-rule:nonzero;fill:rgb(0%,0%,0%);fill-opacity:1;" d="M 190.703125 134.59375 C 190.703125 134.652344 190.746094 134.71875 190.796875 134.75 C 190.859375 134.78125 190.871094 134.746094 190.84375 134.65625 C 190.765625 134.484375 190.703125 134.453125 190.703125 134.59375 Z M 190.703125 134.59375 "/>
<path style=" stroke:none;fill-rule:nonzero;fill:rgb(0%,0%,0%);fill-opacity:1;" d="M 149.046875 192.535156 C 148.285156 192.78125 146.78125 193.628906 146.234375 194.128906 C 145.3125 194.984375 143.597656 197.316406 142.902344 198.714844 C 142.597656 199.296875 141.671875 202.214844 141.253906 203.847656 C 141.128906 204.402344 140.871094 205.734375 140.683594 206.796875 L 140.347656 208.75 L 140.34375 212.347656 C 140.34375 216.609375 140.285156 216.996094 139.40625 219.652344 C 138.3125 223.003906 136.890625 230.433594 136.597656 234.296875 C 136.535156 235.097656 136.453125 236.152344 136.390625 236.652344 C 136.035156 239.75 135.964844 240.6875 135.90625 242.816406 L 135.847656 245.203125 L 134.84375 246.21875 C 133.621094 247.484375 131.9375 249.621094 131.78125 250.121094 C 131.683594 250.464844 131.703125 250.535156 131.90625 250.871094 C 132.265625 251.433594 132.402344 251.683594 132.402344 251.828125 C 132.402344 251.902344 132.15625 252.359375 131.871094 252.859375 C 131.21875 253.9375 130.796875 254.964844 130.796875 255.4375 C 130.796875 255.859375 131.078125 256.097656 131.5625 256.097656 C 131.96875 256.097656 132.203125 256.1875 132.203125 256.34375 C 132.203125 256.40625 131.871094 257.121094 131.46875 257.90625 C 130.496094 259.828125 130.28125 260.878906 130.765625 261.421875 C 131.066406 261.75 131.5625 261.652344 132.566406 261.035156 C 133.503906 260.46875 134.328125 260.171875 135.34375 260.046875 L 135.878906 259.984375 L 135.453125 260.8125 C 134.9375 261.785156 134.109375 263.84375 133.8125 264.871094 C 133.484375 265.96875 133.121094 268.28125 133 270.097656 C 132.9375 271.003906 132.796875 272.503906 132.703125 273.453125 C 132.296875 277.03125 132.203125 279.734375 132.402344 281.953125 C 132.53125 283.34375 132.953125 285.5625 133.152344 285.859375 C 133.34375 286.152344 133.746094 286.253906 134.0625 286.109375 C 134.203125 286.046875 134.347656 286.015625 134.402344 286.046875 C 134.578125 286.15625 135.03125 287.765625 135.203125 288.921875 C 135.316406 289.734375 135.453125 290.21875 135.578125 290.390625 C 135.847656 290.765625 136.746094 291.265625 137.546875 291.515625 C 137.933594 291.628906 138.371094 291.765625 138.515625 291.816406 C 138.816406 291.933594 139.171875 292.347656 139.535156 293.035156 L 139.78125 293.496094 L 139.734375 297.46875 C 139.671875 301.453125 139.671875 301.453125 139.902344 301.984375 C 140.3125 302.921875 140.953125 303.28125 144.121094 304.347656 C 147.078125 305.34375 148.347656 305.496094 149.996094 305.035156 C 150.28125 304.953125 150.53125 304.902344 150.535156 304.921875 C 150.546875 304.9375 150.628906 305.203125 150.734375 305.5 C 150.828125 305.796875 151.078125 306.296875 151.265625 306.597656 C 151.902344 307.5625 153.597656 309.6875 153.933594 309.921875 C 154.402344 310.253906 155.46875 310.285156 156.347656 310 L 157.015625 309.78125 L 157.25 310.003906 C 157.378906 310.140625 157.753906 310.765625 158.097656 311.402344 C 158.4375 312.03125 158.871094 312.703125 159.0625 312.871094 C 159.4375 313.246094 159.75 313.28125 160.714844 313.097656 C 161.597656 312.933594 163.484375 312.953125 164.097656 313.128906 C 164.902344 313.371094 166.546875 314.371094 169.640625 316.5 C 170.3125 316.964844 170.714844 317.003906 171.746094 316.746094 C 172.503906 316.535156 172.796875 316.59375 173.59375 317.046875 C 174.253906 317.453125 174.8125 317.953125 175.683594 318.984375 C 176.34375 319.75 178.097656 321.066406 178.59375 321.15625 C 178.785156 321.203125 179.015625 321.28125 179.097656 321.347656 C 179.1875 321.4375 179.53125 321.484375 180 321.484375 C 180.46875 321.484375 180.8125 321.4375 180.902344 321.347656 C 180.984375 321.28125 181.214844 321.203125 181.40625 321.15625 C 181.902344 321.066406 183.65625 319.75 184.316406 318.984375 C 185.1875 317.953125 185.746094 317.453125 186.40625 317.046875 C 187.203125 316.59375 187.496094 316.535156 188.253906 316.746094 C 189.285156 317.003906 189.6875 316.964844 190.359375 316.5 C 193.453125 314.371094 195.097656 313.371094 195.902344 313.128906 C 196.515625 312.953125 198.402344 312.933594 199.285156 313.097656 C 200.25 313.28125 200.5625 313.246094 200.9375 312.871094 C 201.128906 312.703125 201.5625 312.03125 201.902344 311.402344 C 202.246094 310.765625 202.621094 310.140625 202.75 310.003906 L 202.984375 309.78125 L 203.652344 310 C 204.53125 310.285156 205.597656 310.253906 206.066406 309.921875 C 206.402344 309.6875 208.097656 307.5625 208.734375 306.597656 C 208.921875 306.296875 209.171875 305.796875 209.265625 305.5 C 209.371094 305.203125 209.453125 304.9375 209.464844 304.921875 C 209.46875 304.902344 209.71875 304.953125 210.003906 305.035156 C 211.652344 305.496094 212.921875 305.34375 215.871094 304.347656 C 219.035156 303.285156 219.6875 302.921875 220.097656 301.984375 C 220.328125 301.453125 220.328125 301.453125 220.265625 297.46875 L 220.21875 293.496094 L 220.464844 293.035156 C 220.828125 292.347656 221.183594 291.933594 221.484375 291.816406 C 221.628906 291.765625 222.066406 291.628906 222.453125 291.515625 C 223.253906 291.265625 224.152344 290.765625 224.421875 290.390625 C 224.546875 290.21875 224.683594 289.734375 224.796875 288.921875 C 224.96875 287.765625 225.421875 286.15625 225.597656 286.046875 C 225.652344 286.015625 225.796875 286.046875 225.9375 286.109375 C 226.253906 286.253906 226.65625 286.152344 226.847656 285.859375 C 226.933594 285.746094 227.109375 285.046875 227.25 284.34375 C 227.84375 281.296875 227.847656 278.433594 227.296875 273.5 C 227.203125 272.535156 227.0625 271.003906 227 270.097656 C 226.878906 268.28125 226.515625 265.96875 226.1875 264.871094 C 225.890625 263.84375 225.0625 261.785156 224.546875 260.8125 L 224.121094 259.984375 L 224.65625 260.046875 C 225.671875 260.171875 226.496094 260.46875 227.433594 261.035156 C 228.4375 261.652344 228.933594 261.75 229.234375 261.421875 C 229.71875 260.878906 229.503906 259.828125 228.53125 257.90625 C 228.128906 257.121094 227.796875 256.40625 227.796875 256.34375 C 227.796875 256.1875 228.03125 256.097656 228.4375 256.097656 C 228.921875 256.097656 229.203125 255.859375 229.203125 255.4375 C 229.203125 254.964844 228.78125 253.9375 228.128906 252.859375 C 227.84375 252.359375 227.597656 251.902344 227.597656 251.828125 C 227.597656 251.683594 227.734375 251.433594 228.09375 250.871094 C 228.296875 250.535156 228.316406 250.464844 228.21875 250.121094 C 228.0625 249.621094 226.378906 247.484375 225.15625 246.21875 L 224.152344 245.203125 L 224.09375 242.765625 C 224.0625 241.4375 223.984375 239.921875 223.921875 239.402344 C 223.683594 237.5 223.5 235.71875 223.402344 234.296875 C 223.285156 232.84375 222.546875 227.746094 222.203125 226.046875 C 221.652344 223.40625 221.035156 220.984375 220.546875 219.503906 C 219.71875 217.015625 219.65625 216.59375 219.65625 212.347656 L 219.652344 208.75 L 219.316406 206.796875 C 218.921875 204.5 218.683594 203.46875 217.9375 201.0625 C 217.328125 199.066406 217.109375 198.59375 216.203125 197.203125 C 214.59375 194.75 213.6875 193.847656 212.035156 193.03125 C 210.984375 192.5 210.847656 192.464844 210.078125 192.433594 L 209.25 192.390625 L 207.84375 193.96875 C 207.0625 194.84375 206.203125 195.816406 205.933594 196.152344 C 205.359375 196.84375 202.816406 199.46875 199.933594 202.390625 C 198.84375 203.484375 197.1875 205.171875 196.25 206.140625 C 195.316406 207.109375 194.109375 208.265625 193.566406 208.71875 C 193.03125 209.171875 192.347656 209.8125 192.0625 210.128906 L 191.53125 210.734375 L 191.140625 210.628906 C 190.933594 210.566406 190.316406 210.40625 189.796875 210.253906 C 188.5 209.90625 187.34375 209.71875 185.402344 209.546875 C 184.496094 209.464844 183.503906 209.347656 183.214844 209.296875 C 182.90625 209.246094 181.464844 209.203125 180 209.203125 C 178.535156 209.203125 177.09375 209.246094 176.785156 209.296875 C 176.496094 209.347656 175.503906 209.464844 174.597656 209.546875 C 172.65625 209.71875 171.5 209.90625 170.203125 210.253906 C 169.683594 210.40625 169.066406 210.566406 168.859375 210.628906 L 168.46875 210.734375 L 167.9375 210.128906 C 167.652344 209.8125 166.96875 209.171875 166.433594 208.71875 C 165.890625 208.265625 164.6875 207.109375 163.75 206.140625 C 162.816406 205.171875 161.171875 203.496094 160.097656 202.421875 C 157.3125 199.609375 154.652344 196.847656 154.066406 196.152344 C 153.796875 195.816406 152.9375 194.84375 152.15625 193.984375 L 150.75 192.40625 L 150.097656 192.40625 C 149.746094 192.40625 149.265625 192.46875 149.046875 192.535156 Z M 149.46875 201.78125 C 149.785156 202.09375 150.5625 202.816406 151.183594 203.390625 C 151.84375 204 152.535156 204.75 152.847656 205.1875 C 153.140625 205.609375 153.65625 206.253906 153.996094 206.652344 C 155.421875 208.296875 155.75 208.746094 156.714844 210.347656 C 157.265625 211.28125 157.933594 212.316406 158.171875 212.652344 C 159.003906 213.816406 159.371094 214.359375 159.746094 215.03125 C 159.953125 215.40625 160.433594 216.078125 160.8125 216.515625 C 161.1875 216.964844 161.5 217.378906 161.5 217.453125 C 161.5 217.515625 161.25 217.683594 160.953125 217.796875 C 159.984375 218.1875 157.171875 220.097656 155.8125 221.285156 C 153.871094 222.96875 150.828125 226.066406 150.109375 227.078125 C 149.984375 227.265625 149.84375 227.378906 149.785156 227.328125 C 149.433594 226.964844 147.75 219.433594 147.359375 216.402344 C 146.933594 213.109375 146.871094 209.4375 147.1875 207.152344 C 147.496094 204.996094 147.714844 204.097656 148.25 202.828125 C 148.503906 202.246094 148.746094 201.628906 148.765625 201.484375 C 148.796875 201.328125 148.84375 201.203125 148.859375 201.203125 C 148.878906 201.203125 149.152344 201.464844 149.46875 201.78125 Z M 211.234375 201.484375 C 211.253906 201.628906 211.496094 202.246094 211.75 202.828125 C 212.285156 204.097656 212.503906 204.996094 212.8125 207.152344 C 213.0625 208.9375 213.09375 210.847656 212.902344 213.652344 C 212.714844 216.34375 212.597656 217.097656 211.578125 222.140625 C 211.1875 224.066406 210.371094 227.15625 210.214844 227.328125 C 210.15625 227.378906 210.015625 227.265625 209.890625 227.078125 C 209.171875 226.066406 206.128906 222.96875 204.1875 221.285156 C 202.828125 220.097656 200.015625 218.1875 199.046875 217.796875 C 198.75 217.683594 198.5 217.515625 198.5 217.453125 C 198.5 217.378906 198.8125 216.964844 199.1875 216.515625 C 199.566406 216.078125 200.046875 215.40625 200.253906 215.03125 C 200.640625 214.347656 200.996094 213.8125 201.847656 212.609375 C 202.097656 212.253906 202.753906 211.234375 203.3125 210.3125 C 204.25 208.734375 204.578125 208.296875 206.003906 206.652344 C 206.34375 206.253906 206.859375 205.609375 207.152344 205.1875 C 207.464844 204.75 208.15625 204 208.816406 203.390625 C 209.4375 202.816406 210.203125 202.097656 210.5 201.785156 C 210.796875 201.46875 211.078125 201.21875 211.109375 201.214844 C 211.152344 201.203125 211.203125 201.328125 211.234375 201.484375 Z M 182.546875 210.253906 C 182.734375 210.296875 182.75 210.378906 182.71875 211.035156 C 182.683594 211.9375 183.03125 214.097656 183.347656 214.953125 C 183.78125 216.078125 184.371094 217.253906 185.296875 218.84375 C 186.5 220.871094 186.503906 220.953125 185.8125 222.378906 C 184.753906 224.503906 184.4375 225.953125 184.890625 226.503906 C 185.046875 226.714844 185.183594 226.746094 186.035156 226.78125 C 186.96875 226.816406 187.003906 226.84375 187.253906 227.128906 C 187.640625 227.59375 188.0625 228.484375 188.203125 229.140625 C 188.347656 229.847656 188.234375 230.5625 187.746094 232.078125 C 187.3125 233.390625 186.4375 236.828125 186.3125 237.75 C 186.25 238.128906 186.140625 239.566406 186.046875 240.953125 C 185.890625 243.496094 185.796875 244.21875 185.609375 244.746094 C 185.503906 244.996094 185.464844 245.015625 185.121094 244.984375 C 184.921875 244.953125 184.546875 244.878906 184.296875 244.816406 C 182.496094 244.378906 181.828125 244.296875 180 244.296875 C 178.171875 244.296875 177.503906 244.378906 175.703125 244.816406 C 175.453125 244.878906 175.078125 244.953125 174.878906 244.984375 C 174.535156 245.015625 174.496094 244.996094 174.390625 244.746094 C 174.203125 244.21875 174.109375 243.496094 173.953125 240.953125 C 173.859375 239.566406 173.75 238.128906 173.6875 237.75 C 173.5625 236.828125 172.6875 233.390625 172.253906 232.078125 C 171.765625 230.5625 171.652344 229.847656 171.796875 229.140625 C 171.9375 228.484375 172.359375 227.59375 172.746094 227.128906 C 172.996094 226.84375 173.03125 226.816406 173.964844 226.78125 C 174.816406 226.746094 174.953125 226.714844 175.109375 226.503906 C 175.5625 225.953125 175.246094 224.503906 174.1875 222.378906 C 173.496094 220.953125 173.5 220.871094 174.703125 218.84375 C 175.628906 217.253906 176.21875 216.078125 176.652344 214.953125 C 176.96875 214.097656 177.316406 211.9375 177.28125 211.035156 C 177.253906 210.453125 177.28125 210.296875 177.402344 210.265625 C 177.621094 210.214844 182.316406 210.203125 182.546875 210.253906 Z M 176.8125 210.566406 C 176.859375 212.285156 176.683594 213.9375 176.347656 214.71875 C 176.265625 214.933594 176.1875 215.128906 176.183594 215.171875 C 176.097656 215.59375 175.234375 217.265625 174.453125 218.535156 C 173.121094 220.703125 173.09375 220.890625 173.996094 222.796875 C 174.34375 223.535156 174.6875 224.402344 174.765625 224.703125 C 174.9375 225.316406 174.96875 226.171875 174.828125 226.3125 C 174.765625 226.371094 174.3125 226.433594 173.785156 226.464844 C 172.59375 226.515625 172.597656 226.515625 172.652344 226.597656 C 172.671875 226.640625 172.566406 226.796875 172.421875 226.96875 C 171.546875 227.953125 171.1875 229.535156 171.535156 230.871094 C 171.621094 231.15625 171.671875 231.402344 171.640625 231.402344 C 171.621094 231.402344 171.6875 231.597656 171.796875 231.847656 C 171.90625 232.097656 172 232.34375 172 232.378906 C 172 232.421875 172.09375 232.746094 172.214844 233.09375 C 172.316406 233.4375 172.390625 233.785156 172.359375 233.859375 C 172.328125 233.9375 172.359375 234 172.40625 234 C 172.46875 234 172.5 234.09375 172.46875 234.203125 C 172.4375 234.3125 172.453125 234.402344 172.496094 234.402344 C 172.566406 234.402344 173.09375 236.4375 173.285156 237.5 C 173.390625 238.015625 173.53125 239.746094 173.652344 241.902344 C 173.703125 242.75 173.8125 244.066406 173.847656 244.203125 C 174.046875 244.902344 174.121094 245.097656 174.214844 245.15625 C 174.285156 245.214844 174.285156 245.25 174.214844 245.296875 C 173.996094 245.433594 174.847656 245.402344 175.453125 245.25 C 177.390625 244.78125 178.109375 244.6875 180.003906 244.6875 C 181.933594 244.6875 182.40625 244.75 184.347656 245.214844 C 185.121094 245.390625 186.035156 245.453125 185.785156 245.296875 C 185.714844 245.25 185.714844 245.214844 185.785156 245.15625 C 185.878906 245.097656 185.953125 244.902344 186.152344 244.203125 C 186.1875 244.066406 186.296875 242.75 186.347656 241.902344 C 186.46875 239.746094 186.609375 238.015625 186.714844 237.5 C 186.902344 236.5 187.433594 234.453125 187.5 234.421875 C 187.535156 234.402344 187.5625 234.296875 187.53125 234.203125 C 187.5 234.09375 187.53125 234 187.59375 234 C 187.640625 234 187.671875 233.933594 187.640625 233.847656 C 187.609375 233.765625 187.683594 233.421875 187.785156 233.078125 C 187.90625 232.734375 188 232.421875 188 232.378906 C 188 232.34375 188.09375 232.097656 188.203125 231.847656 C 188.3125 231.597656 188.378906 231.402344 188.359375 231.402344 C 188.328125 231.402344 188.378906 231.15625 188.464844 230.871094 C 188.8125 229.535156 188.453125 227.953125 187.578125 226.96875 C 187.433594 226.796875 187.328125 226.640625 187.347656 226.597656 C 187.402344 226.515625 187.40625 226.515625 186.214844 226.464844 C 185.6875 226.433594 185.234375 226.371094 185.183594 226.316406 C 185.035156 226.183594 185.046875 225.40625 185.1875 224.847656 C 185.34375 224.25 185.371094 224.1875 185.902344 223.046875 C 186.566406 221.628906 186.71875 221.183594 186.671875 220.84375 C 186.597656 220.4375 186.128906 219.46875 185.5 218.453125 C 185.03125 217.6875 183.902344 215.503906 183.859375 215.265625 C 183.847656 215.203125 183.753906 214.96875 183.65625 214.75 C 183.390625 214.121094 183.214844 213 183.203125 211.828125 C 183.183594 210.265625 183.171875 210.371094 183.433594 210.433594 C 183.628906 210.484375 184.503906 210.578125 186.402344 210.753906 C 186.753906 210.785156 187.25 210.859375 187.5 210.90625 C 187.75 210.964844 188.09375 211.015625 188.25 211.046875 C 189 211.171875 190.65625 211.621094 190.996094 211.785156 C 191.09375 211.847656 191.234375 212.035156 191.285156 212.21875 C 191.359375 212.402344 191.464844 212.628906 191.503906 212.71875 C 191.5625 212.816406 191.597656 212.953125 191.597656 213.015625 C 191.597656 213.09375 191.703125 213.25 191.828125 213.359375 C 191.953125 213.484375 192.234375 213.816406 192.453125 214.109375 C 192.65625 214.40625 193.046875 214.828125 193.3125 215.046875 C 193.5625 215.265625 193.75 215.496094 193.71875 215.546875 C 193.6875 215.597656 193.703125 215.621094 193.746094 215.59375 C 193.8125 215.53125 195 216.097656 195.253906 216.3125 C 195.328125 216.359375 195.421875 216.402344 195.464844 216.390625 C 195.503906 216.378906 195.640625 216.402344 195.75 216.453125 C 196.785156 216.871094 197.109375 217.003906 197.5 217.21875 C 197.75 217.359375 197.964844 217.53125 197.964844 217.609375 C 197.96875 217.6875 197.984375 217.796875 197.996094 217.859375 C 197.996094 217.933594 198.121094 217.96875 198.28125 217.96875 C 198.671875 217.964844 200.371094 218.8125 200.933594 219.3125 C 201 219.371094 201.171875 219.496094 201.3125 219.578125 C 202.84375 220.578125 203.953125 221.484375 205.433594 222.921875 C 205.703125 223.171875 205.9375 223.390625 205.984375 223.40625 C 206.097656 223.4375 206.652344 224.121094 206.652344 224.246094 C 206.65625 224.296875 206.714844 224.34375 206.78125 224.316406 C 206.9375 224.285156 208.40625 225.796875 208.34375 225.921875 C 208.3125 225.96875 208.316406 225.996094 208.371094 225.984375 C 208.40625 225.964844 208.46875 225.996094 208.5 226.03125 C 208.53125 226.066406 208.785156 226.359375 209.078125 226.65625 C 209.359375 226.96875 209.628906 227.34375 209.671875 227.484375 C 209.746094 227.796875 210.09375 228.203125 210.296875 228.203125 C 210.5 228.203125 211.421875 229.203125 211.753906 229.78125 C 211.90625 230.035156 212.152344 230.40625 212.296875 230.597656 C 212.453125 230.785156 212.828125 231.328125 213.152344 231.796875 C 213.464844 232.265625 213.816406 232.753906 213.953125 232.902344 C 214.066406 233.035156 214.203125 233.21875 214.234375 233.296875 C 214.265625 233.378906 214.40625 233.628906 214.546875 233.847656 C 215.046875 234.652344 215.5 235.609375 215.4375 235.71875 C 215.402344 235.78125 215.40625 235.796875 215.484375 235.753906 C 215.535156 235.734375 215.621094 235.796875 215.65625 235.921875 C 215.703125 236.046875 215.890625 236.496094 216.09375 236.902344 C 216.28125 237.3125 216.433594 237.683594 216.421875 237.71875 C 216.40625 237.765625 216.453125 237.796875 216.503906 237.796875 C 216.566406 237.796875 216.59375 237.871094 216.5625 237.964844 C 216.53125 238.035156 216.535156 238.09375 216.59375 238.046875 C 216.640625 238.015625 216.746094 238.171875 216.796875 238.371094 C 216.871094 238.578125 216.964844 238.785156 217 238.847656 C 217.046875 238.902344 217.09375 238.984375 217.09375 239.03125 C 217.09375 239.066406 217.171875 239.246094 217.25 239.402344 C 217.34375 239.566406 217.371094 239.703125 217.328125 239.703125 C 217.28125 239.703125 217.296875 239.746094 217.359375 239.78125 C 217.496094 239.859375 218.53125 241.796875 218.4375 241.796875 C 218.40625 241.796875 218.484375 241.921875 218.59375 242.0625 C 218.714844 242.214844 218.796875 242.40625 218.796875 242.503906 C 218.796875 242.597656 218.847656 242.703125 218.90625 242.71875 C 218.964844 242.746094 219.015625 242.828125 219.03125 242.921875 C 219.046875 243.003906 219.109375 243.152344 219.183594 243.234375 C 219.296875 243.371094 219.484375 244.171875 219.515625 244.75 C 219.53125 244.90625 219.59375 245.078125 219.652344 245.121094 C 219.765625 245.203125 219.785156 250.28125 219.683594 251 C 219.640625 251.25 219.578125 251.628906 219.546875 251.847656 C 219.515625 252.066406 219.296875 253.035156 219.046875 254 C 218.8125 254.964844 218.59375 255.878906 218.5625 256.046875 C 218.53125 256.214844 218.390625 256.734375 218.25 257.1875 C 218.109375 257.65625 218 258.121094 218 258.21875 C 218 258.328125 217.964844 258.390625 217.921875 258.359375 C 217.878906 258.34375 217.84375 258.390625 217.828125 258.484375 C 217.816406 258.683594 217.765625 258.921875 217.4375 260.296875 C 217.296875 260.878906 217.128906 261.53125 217.0625 261.75 C 216.996094 261.96875 216.847656 262.402344 216.75 262.703125 C 216.65625 263 216.515625 263.378906 216.453125 263.546875 C 216.371094 263.714844 216.203125 264.246094 216.046875 264.71875 C 215.90625 265.214844 215.753906 265.597656 215.71875 265.597656 C 215.683594 265.597656 215.640625 265.703125 215.628906 265.828125 C 215.621094 266.097656 214.71875 268.015625 214.5625 268.121094 C 214.5 268.15625 214.496094 268.203125 214.535156 268.203125 C 214.621094 268.203125 214.390625 268.621094 214.140625 268.902344 C 214.066406 268.984375 213.84375 269.246094 213.640625 269.484375 C 213.4375 269.714844 212.96875 270.140625 212.609375 270.421875 C 212.25 270.714844 211.921875 270.996094 211.890625 271.035156 C 211.847656 271.09375 211.765625 271.09375 211.703125 271.046875 C 211.609375 271 211.59375 271.003906 211.640625 271.078125 C 211.683594 271.15625 211.609375 271.246094 211.464844 271.296875 C 211.316406 271.347656 211.203125 271.4375 211.203125 271.5 C 211.203125 271.546875 211.140625 271.597656 211.0625 271.597656 C 210.984375 271.597656 210.902344 271.628906 210.878906 271.671875 C 210.847656 271.746094 210.078125 272.28125 209.847656 272.402344 C 209.796875 272.433594 209.5625 272.578125 209.316406 272.734375 C 208.921875 272.996094 208.402344 273.234375 208.3125 273.203125 C 208.285156 273.1875 208.246094 273.21875 208.214844 273.265625 C 208.183594 273.316406 207.847656 273.566406 207.496094 273.816406 C 207.128906 274.078125 206.828125 274.359375 206.828125 274.4375 C 206.828125 274.53125 206.847656 274.578125 206.878906 274.546875 C 206.96875 274.464844 207.296875 274.714844 207.246094 274.816406 C 207.203125 274.890625 207.214844 274.902344 207.28125 274.859375 C 207.40625 274.78125 207.921875 274.890625 207.859375 274.996094 C 207.828125 275.03125 207.890625 275.0625 207.984375 275.066406 C 208.296875 275.09375 210.097656 275.753906 210.03125 275.84375 C 209.996094 275.878906 210.03125 275.878906 210.109375 275.847656 C 210.203125 275.816406 210.328125 275.859375 210.402344 275.953125 C 210.46875 276.03125 210.5625 276.097656 210.609375 276.097656 C 210.65625 276.097656 210.964844 276.265625 211.265625 276.46875 C 212.296875 277.128906 213.390625 278.359375 213.359375 278.828125 C 213.347656 278.953125 213.378906 279.078125 213.433594 279.109375 C 213.59375 279.234375 213.203125 280.652344 212.746094 281.59375 C 212.484375 282.121094 212.234375 282.5625 212.183594 282.578125 C 212.140625 282.597656 212.097656 282.671875 212.097656 282.746094 C 212.097656 282.871094 211.515625 284.003906 211.40625 284.097656 C 211.378906 284.128906 211.152344 284.546875 210.902344 285.046875 C 210.65625 285.535156 210.421875 285.984375 210.371094 286.003906 C 210.316406 286.035156 210.285156 286.109375 210.285156 286.15625 C 210.3125 286.328125 209.890625 287.203125 209.785156 287.203125 C 209.734375 287.203125 209.71875 287.246094 209.75 287.296875 C 209.78125 287.347656 209.753906 287.402344 209.714844 287.402344 C 209.652344 287.402344 209.597656 287.46875 209.597656 287.5625 C 209.597656 287.652344 209.546875 287.683594 209.484375 287.640625 C 209.40625 287.59375 209.402344 287.609375 209.4375 287.6875 C 209.53125 287.828125 209.21875 288.21875 209.09375 288.152344 C 209.046875 288.121094 208.984375 288.152344 208.9375 288.214844 C 208.902344 288.285156 208.90625 288.296875 208.984375 288.253906 C 209.15625 288.152344 209.121094 288.285156 208.890625 288.609375 C 208.78125 288.765625 208.640625 288.878906 208.59375 288.847656 C 208.535156 288.8125 208.53125 288.859375 208.5625 288.9375 C 208.59375 289.03125 208.566406 289.097656 208.503906 289.097656 C 208.453125 289.097656 208.40625 289.128906 208.421875 289.171875 C 208.46875 289.328125 207.683594 290.5 207.578125 290.4375 C 207.503906 290.390625 207.5 290.421875 207.535156 290.496094 C 207.59375 290.5625 207.46875 290.84375 207.253906 291.15625 C 207.0625 291.453125 206.902344 291.71875 206.902344 291.75 C 206.90625 291.902344 205.359375 293.785156 205.265625 293.734375 C 205.214844 293.703125 205.203125 293.71875 205.246094 293.78125 C 205.3125 293.902344 205.28125 293.953125 204.734375 294.546875 C 204.5625 294.746094 204.25 295.097656 204.046875 295.347656 C 203.84375 295.597656 203.628906 295.765625 203.566406 295.734375 C 203.503906 295.703125 203.5 295.71875 203.535156 295.785156 C 203.609375 295.890625 203.078125 296.621094 202.984375 296.5625 C 202.96875 296.546875 202.847656 296.640625 202.734375 296.765625 C 202.609375 296.902344 202.53125 297 202.5625 297 C 202.597656 297 202.003906 297.53125 201.71875 297.75 C 201.652344 297.796875 201.5 297.933594 201.390625 298.03125 C 201.121094 298.265625 200.296875 298.785156 199.453125 299.25 C 198.535156 299.734375 197.796875 300.21875 197.5625 300.496094 C 197.453125 300.609375 197.3125 300.703125 197.246094 300.703125 C 197.171875 300.703125 197.097656 300.734375 197.078125 300.765625 C 197.015625 300.921875 196.183594 301.296875 196.078125 301.234375 C 196.003906 301.203125 196 301.21875 196.035156 301.28125 C 196.09375 301.359375 196.035156 301.402344 195.90625 301.402344 C 195.8125 301.402344 195.703125 301.433594 195.683594 301.46875 C 195.640625 301.5625 194.453125 302 194.152344 302.035156 C 194.035156 302.0625 193.8125 302.140625 193.652344 302.234375 C 193.484375 302.3125 193.15625 302.421875 192.953125 302.464844 C 192.433594 302.5625 192.503906 302.546875 192.046875 302.683594 C 191.828125 302.746094 191.066406 302.890625 190.347656 303.003906 C 189.640625 303.128906 188.421875 303.371094 187.652344 303.5625 C 186.878906 303.746094 186.03125 303.921875 185.75 303.964844 C 185.484375 303.996094 184.878906 304.109375 184.421875 304.21875 C 183.890625 304.34375 183.21875 304.40625 182.515625 304.40625 C 181.183594 304.421875 181.183594 304.421875 181.246094 304.3125 C 181.378906 304.097656 181.035156 304.03125 180.515625 304.15625 C 180.078125 304.265625 179.921875 304.265625 179.46875 304.15625 C 178.964844 304.03125 178.621094 304.097656 178.753906 304.3125 C 178.816406 304.421875 178.816406 304.421875 177.484375 304.40625 C 176.78125 304.40625 176.109375 304.34375 175.578125 304.21875 C 175.121094 304.109375 174.53125 303.996094 174.25 303.964844 C 173.984375 303.921875 173.121094 303.746094 172.347656 303.5625 C 171.578125 303.371094 170.371094 303.128906 169.652344 303.003906 C 168.9375 302.890625 168.171875 302.746094 167.953125 302.683594 C 167.496094 302.546875 167.566406 302.5625 167.046875 302.464844 C 166.84375 302.421875 166.515625 302.3125 166.347656 302.234375 C 166.1875 302.140625 165.964844 302.0625 165.847656 302.035156 C 165.546875 302 164.359375 301.5625 164.316406 301.46875 C 164.296875 301.433594 164.1875 301.402344 164.09375 301.402344 C 163.964844 301.402344 163.90625 301.359375 163.964844 301.28125 C 164 301.21875 163.996094 301.203125 163.921875 301.234375 C 163.816406 301.296875 163.0625 300.953125 162.816406 300.71875 C 162.75 300.65625 162.652344 300.597656 162.621094 300.597656 C 162.578125 300.597656 162.433594 300.5 162.296875 300.371094 C 161.871094 300 161.421875 299.703125 160.621094 299.28125 C 159.71875 298.796875 158.890625 298.28125 158.621094 298.03125 C 158.515625 297.933594 158.3125 297.753906 158.15625 297.65625 C 157.796875 297.402344 157.371094 297 157.464844 297 C 157.5 297 157.402344 296.902344 157.246094 296.765625 C 156.765625 296.40625 156.402344 295.964844 156.453125 295.816406 C 156.484375 295.75 156.464844 295.714844 156.40625 295.746094 C 156.359375 295.765625 156.066406 295.496094 155.75 295.109375 C 155.4375 294.71875 155.15625 294.402344 155.121094 294.378906 C 155.03125 294.34375 153.128906 291.878906 153.121094 291.765625 C 153.109375 291.734375 152.9375 291.453125 152.746094 291.15625 C 152.53125 290.84375 152.40625 290.5625 152.464844 290.496094 C 152.5 290.421875 152.496094 290.390625 152.421875 290.4375 C 152.328125 290.496094 151.578125 289.421875 151.535156 289.171875 C 151.53125 289.128906 151.503906 289.066406 151.5 289.015625 C 151.496094 288.984375 151.484375 288.90625 151.496094 288.871094 C 151.5 288.816406 151.464844 288.8125 151.40625 288.84375 C 151.359375 288.878906 151.21875 288.765625 151.109375 288.609375 C 150.878906 288.285156 150.84375 288.152344 151.015625 288.253906 C 151.09375 288.296875 151.097656 288.285156 151.0625 288.214844 C 151.015625 288.152344 150.953125 288.121094 150.90625 288.152344 C 150.785156 288.21875 150.46875 287.828125 150.546875 287.703125 C 150.578125 287.640625 150.5625 287.609375 150.484375 287.621094 C 150.40625 287.640625 150.359375 287.59375 150.378906 287.515625 C 150.390625 287.464844 150.347656 287.402344 150.285156 287.402344 C 150.246094 287.402344 150.21875 287.347656 150.25 287.296875 C 150.28125 287.246094 150.265625 287.203125 150.214844 287.203125 C 150.121094 287.203125 149.714844 286.40625 149.65625 286.140625 C 149.652344 286.066406 149.597656 285.964844 149.535156 285.890625 C 149.496094 285.8125 149.378906 285.609375 149.296875 285.453125 C 149.21875 285.28125 148.902344 284.703125 148.59375 284.152344 C 148.28125 283.597656 147.996094 283.035156 147.953125 282.902344 C 147.90625 282.753906 147.84375 282.628906 147.796875 282.597656 C 147.753906 282.566406 147.515625 282.121094 147.253906 281.59375 C 146.8125 280.652344 146.40625 279.234375 146.566406 279.109375 C 146.609375 279.078125 146.652344 278.964844 146.640625 278.847656 C 146.640625 278.496094 146.996094 277.964844 147.6875 277.296875 C 148.066406 276.9375 148.5625 276.5625 148.785156 276.453125 C 149.003906 276.34375 149.203125 276.21875 149.203125 276.171875 C 149.203125 276.128906 149.253906 276.097656 149.34375 276.097656 C 149.40625 276.097656 149.53125 276.03125 149.597656 275.953125 C 149.671875 275.859375 149.785156 275.8125 149.871094 275.84375 C 149.9375 275.871094 150 275.859375 150 275.8125 C 150 275.765625 150.371094 275.597656 150.828125 275.453125 C 151.28125 275.296875 151.714844 275.128906 151.765625 275.078125 C 151.84375 275.015625 151.96875 275 152.046875 275.035156 C 152.140625 275.066406 152.1875 275.0625 152.15625 275.003906 C 152.09375 274.902344 152.566406 274.765625 152.71875 274.859375 C 152.785156 274.902344 152.796875 274.890625 152.753906 274.816406 C 152.6875 274.703125 153.03125 274.46875 153.128906 274.5625 C 153.15625 274.59375 153.15625 274.53125 153.128906 274.421875 C 153.097656 274.3125 152.796875 274.015625 152.46875 273.785156 C 152.128906 273.546875 151.816406 273.316406 151.785156 273.265625 C 151.753906 273.21875 151.714844 273.1875 151.6875 273.203125 C 151.597656 273.234375 151.078125 272.996094 150.683594 272.734375 C 150.4375 272.578125 150.214844 272.433594 150.152344 272.402344 C 149.703125 272.15625 149.3125 271.859375 149.359375 271.785156 C 149.390625 271.746094 149.34375 271.734375 149.253906 271.753906 C 149.171875 271.785156 149.097656 271.765625 149.097656 271.714844 C 149.097656 271.652344 149.03125 271.597656 148.953125 271.597656 C 148.871094 271.597656 148.796875 271.546875 148.796875 271.5 C 148.796875 271.4375 148.683594 271.347656 148.535156 271.296875 C 148.390625 271.246094 148.316406 271.15625 148.359375 271.078125 C 148.40625 271.003906 148.390625 271 148.296875 271.046875 C 148.234375 271.09375 148.152344 271.09375 148.109375 271.035156 C 148.078125 270.996094 147.746094 270.703125 147.371094 270.40625 C 146.597656 269.796875 145.5 268.546875 145.5 268.285156 C 145.5 268.1875 145.453125 268.078125 145.402344 268.046875 C 145.25 267.964844 144.378906 266.09375 144.359375 265.828125 C 144.359375 265.703125 144.316406 265.597656 144.28125 265.597656 C 144.246094 265.597656 144.09375 265.214844 143.953125 264.71875 C 143.796875 264.246094 143.628906 263.714844 143.546875 263.546875 C 143.484375 263.378906 143.34375 263 143.25 262.703125 C 143.15625 262.402344 143.035156 262.003906 142.984375 261.847656 C 142.785156 261.285156 142.1875 258.78125 142.171875 258.484375 C 142.15625 258.390625 142.121094 258.34375 142.078125 258.359375 C 142.035156 258.390625 142 258.328125 142 258.21875 C 142 258.121094 141.890625 257.65625 141.75 257.1875 C 141.609375 256.734375 141.46875 256.234375 141.453125 256.078125 C 141.421875 255.933594 141.203125 255 140.953125 254.003906 C 140.703125 253.015625 140.484375 252.035156 140.453125 251.828125 C 140.433594 251.621094 140.378906 251.34375 140.34375 251.203125 C 140.214844 250.734375 140.171875 245.816406 140.296875 245.46875 C 140.371094 245.285156 140.4375 244.996094 140.464844 244.796875 C 140.566406 243.933594 140.714844 243.347656 140.871094 243.171875 C 140.96875 243.0625 140.996094 243 140.921875 243.035156 C 140.8125 243.109375 140.8125 243.078125 140.921875 242.90625 C 140.996094 242.785156 141.078125 242.703125 141.121094 242.703125 C 141.171875 242.703125 141.203125 242.640625 141.203125 242.5625 C 141.203125 242.371094 142.496094 239.871094 142.628906 239.78125 C 142.703125 239.746094 142.71875 239.703125 142.671875 239.703125 C 142.628906 239.703125 142.671875 239.546875 142.765625 239.371094 C 142.859375 239.203125 142.953125 239.03125 142.953125 239 C 142.964844 238.96875 143.015625 238.8125 143.09375 238.652344 C 143.152344 238.484375 143.25 238.234375 143.3125 238.078125 C 143.371094 237.933594 143.46875 237.828125 143.53125 237.871094 C 143.578125 237.902344 143.597656 237.878906 143.5625 237.816406 C 143.53125 237.753906 143.671875 237.359375 143.890625 236.933594 C 144.097656 236.5 144.3125 236.046875 144.34375 235.921875 C 144.378906 235.796875 144.464844 235.734375 144.515625 235.753906 C 144.59375 235.796875 144.597656 235.78125 144.5625 235.71875 C 144.5 235.609375 144.953125 234.65625 145.453125 233.847656 C 145.59375 233.628906 145.746094 233.359375 145.785156 233.25 C 145.847656 233.140625 146.035156 232.890625 146.21875 232.703125 C 146.402344 232.5 146.546875 232.316406 146.5625 232.296875 C 146.566406 232.214844 147.140625 231.347656 147.5625 230.796875 C 147.78125 230.5 148.09375 230.035156 148.246094 229.78125 C 148.578125 229.203125 149.5 228.203125 149.703125 228.203125 C 149.90625 228.203125 150.25 227.796875 150.328125 227.496094 C 150.371094 227.347656 150.640625 226.96875 150.953125 226.652344 C 151.25 226.316406 151.5 226.03125 151.5 226 C 151.5 225.871094 153.109375 224.296875 153.21875 224.316406 C 153.285156 224.34375 153.34375 224.296875 153.347656 224.246094 C 153.347656 224.121094 153.953125 223.390625 154.03125 223.390625 C 154.0625 223.378906 154.3125 223.171875 154.578125 222.921875 C 155.996094 221.566406 157.597656 220.214844 157.597656 220.371094 C 157.597656 220.40625 157.640625 220.402344 157.683594 220.347656 C 157.785156 220.203125 158.503906 219.652344 158.796875 219.5 C 158.9375 219.433594 159.066406 219.34375 159.097656 219.296875 C 159.328125 218.96875 161.328125 217.964844 161.734375 217.96875 C 161.878906 217.96875 162.003906 217.933594 162.003906 217.859375 C 162.015625 217.796875 162.03125 217.6875 162.035156 217.609375 C 162.035156 217.53125 162.25 217.359375 162.5 217.21875 C 162.890625 217.003906 163.214844 216.871094 164.25 216.453125 C 164.359375 216.402344 164.496094 216.378906 164.535156 216.390625 C 164.578125 216.402344 164.671875 216.359375 164.746094 216.3125 C 165 216.097656 166.1875 215.53125 166.253906 215.59375 C 166.296875 215.621094 166.3125 215.597656 166.28125 215.546875 C 166.25 215.496094 166.4375 215.265625 166.6875 215.046875 C 166.953125 214.828125 167.34375 214.40625 167.546875 214.109375 C 167.765625 213.816406 168.046875 213.484375 168.171875 213.359375 C 168.296875 213.25 168.402344 213.09375 168.402344 213.015625 C 168.402344 212.953125 168.4375 212.816406 168.496094 212.71875 C 168.535156 212.628906 168.640625 212.402344 168.714844 212.21875 C 168.765625 212.035156 168.90625 211.847656 169.003906 211.785156 C 169.34375 211.621094 171 211.171875 171.75 211.046875 C 171.921875 211.015625 172.25 210.964844 172.5 210.90625 C 172.75 210.859375 173.21875 210.785156 173.546875 210.753906 C 175.609375 210.566406 176.464844 210.484375 176.496094 210.4375 C 176.597656 210.328125 176.796875 210.421875 176.8125 210.566406 Z M 176.8125 210.566406 "/>
<path style=" stroke:none;fill-rule:nonzero;fill:rgb(0%,0%,0%);fill-opacity:1;" d="M 156.652344 237.035156 C 156.347656 237.171875 156.097656 237.546875 156.097656 237.871094 C 156.097656 238.109375 156.566406 238.683594 156.816406 238.75 C 157.066406 238.828125 157.183594 238.871094 158.652344 239.496094 C 159.359375 239.785156 160.121094 240.003906 161.347656 240.253906 C 162.28125 240.4375 163.390625 240.6875 163.796875 240.8125 C 164.214844 240.921875 164.753906 241.0625 165.03125 241.121094 C 165.285156 241.183594 165.5 241.253906 165.5 241.285156 C 165.5 241.328125 165.59375 241.359375 165.6875 241.371094 C 166.046875 241.402344 167.453125 242.003906 167.847656 242.316406 C 168.40625 242.753906 168.953125 243.464844 169.4375 244.378906 C 170.734375 246.847656 170.933594 247.171875 171.390625 247.421875 C 171.8125 247.640625 171.84375 247.683594 171.964844 248.285156 C 172.183594 249.347656 172.246094 250.109375 172.503906 255.296875 C 172.652344 258.046875 172.5625 259.25 172.035156 261.597656 C 171.953125 262.003906 171.859375 262.4375 171.847656 262.546875 C 171.828125 262.65625 171.8125 262.75 171.796875 262.75 C 171.785156 262.75 171.753906 262.878906 171.746094 263.046875 C 171.714844 263.214844 171.621094 263.6875 171.53125 264.097656 C 171.453125 264.503906 171.34375 265.03125 171.296875 265.25 C 171.1875 265.78125 171.097656 266 170.996094 266 C 170.9375 266 170.902344 266.078125 170.902344 266.171875 C 170.902344 266.34375 170.015625 268.378906 169.902344 268.5 C 169.871094 268.53125 169.84375 268.628906 169.816406 268.734375 C 169.796875 268.816406 169.640625 269.234375 169.453125 269.621094 C 169.253906 270.015625 169.097656 270.433594 169.097656 270.53125 C 169.097656 270.621094 169.03125 270.734375 168.953125 270.753906 C 168.765625 270.828125 168.828125 271.5 169.0625 272.066406 C 169.140625 272.25 169.183594 272.464844 169.140625 272.515625 C 169.097656 272.59375 169.109375 272.597656 169.183594 272.5625 C 169.246094 272.53125 169.34375 272.59375 169.402344 272.703125 C 169.703125 273.253906 171.078125 273.46875 172.097656 273.121094 C 172.402344 273.003906 173.097656 272.703125 173.652344 272.421875 C 174.765625 271.847656 175.703125 271.46875 175.703125 271.578125 C 175.703125 271.621094 175.746094 271.597656 175.78125 271.535156 C 175.847656 271.433594 177.933594 270.859375 178.671875 270.75 C 179.21875 270.65625 180.78125 270.65625 181.328125 270.75 C 182.066406 270.859375 184.152344 271.433594 184.21875 271.535156 C 184.253906 271.597656 184.296875 271.621094 184.296875 271.578125 C 184.296875 271.46875 185.234375 271.847656 186.347656 272.421875 C 186.902344 272.703125 187.597656 273.003906 187.902344 273.121094 C 188.921875 273.46875 190.296875 273.253906 190.597656 272.703125 C 190.65625 272.59375 190.753906 272.53125 190.816406 272.5625 C 190.890625 272.597656 190.902344 272.59375 190.859375 272.515625 C 190.816406 272.464844 190.859375 272.25 190.9375 272.066406 C 191.171875 271.5 191.234375 270.828125 191.046875 270.753906 C 190.96875 270.734375 190.902344 270.628906 190.902344 270.535156 C 190.902344 270.4375 190.71875 269.964844 190.496094 269.464844 C 190.265625 268.964844 190.035156 268.464844 190 268.347656 C 189.953125 268.246094 189.734375 267.75 189.5 267.253906 C 189.28125 266.765625 189.097656 266.285156 189.097656 266.1875 C 189.097656 266.078125 189.0625 266 189.003906 266 C 188.902344 266 188.8125 265.78125 188.703125 265.25 C 188.65625 265.03125 188.546875 264.496094 188.453125 264.046875 C 188.359375 263.609375 188.265625 263.140625 188.25 263 C 188.234375 262.859375 188.214844 262.75 188.203125 262.75 C 188.1875 262.75 188.171875 262.683594 188.152344 262.597656 C 188.140625 262.515625 188.046875 262.066406 187.953125 261.597656 C 187.546875 259.628906 187.421875 258.546875 187.453125 257.203125 C 187.496094 254.734375 187.714844 250.65625 187.859375 249.546875 C 188.121094 247.609375 188.09375 247.6875 188.621094 247.40625 C 189 247.214844 189.140625 247.046875 189.40625 246.503906 C 189.59375 246.152344 189.921875 245.53125 190.152344 245.152344 C 190.371094 244.753906 190.640625 244.265625 190.75 244.046875 C 190.96875 243.59375 191.484375 242.921875 191.933594 242.5 C 192.402344 242.066406 193.902344 241.378906 194.34375 241.40625 C 194.390625 241.40625 194.464844 241.371094 194.496094 241.316406 C 194.515625 241.265625 194.75 241.183594 195 241.121094 C 195.25 241.0625 195.859375 240.90625 196.347656 240.765625 C 196.847656 240.628906 197.785156 240.421875 198.453125 240.296875 C 199.953125 240.03125 200.34375 239.921875 201.453125 239.453125 C 202.878906 238.847656 202.9375 238.828125 203.183594 238.75 C 203.464844 238.671875 203.902344 238.097656 203.902344 237.8125 C 203.902344 237.484375 203.621094 237.121094 203.253906 237 C 202.890625 236.878906 202.671875 236.9375 200.296875 237.8125 L 198.847656 238.34375 L 197.421875 238.316406 C 196.1875 238.3125 195.066406 238.433594 194.453125 238.640625 C 194.171875 238.734375 193.902344 238.84375 193.433594 239.066406 C 193.140625 239.203125 192.878906 239.3125 192.84375 239.296875 C 192.796875 239.285156 192.746094 239.328125 192.714844 239.378906 C 192.683594 239.433594 192.296875 239.703125 191.871094 239.984375 C 191.03125 240.53125 190.328125 241.09375 189.921875 241.53125 C 189.484375 242 188.796875 242.9375 188.796875 243.078125 C 188.796875 243.214844 187.921875 245.015625 187.8125 245.097656 C 187.753906 245.140625 187.515625 245.847656 187.34375 246.484375 C 187.296875 246.609375 187.5625 247.09375 187.746094 247.21875 C 187.796875 247.253906 187.75 247.65625 187.621094 248.265625 C 187.378906 249.371094 187.34375 249.785156 187.1875 252.75 C 186.921875 258.296875 186.953125 259.03125 187.5 261.5 C 187.597656 261.96875 187.714844 262.484375 187.734375 262.652344 C 187.871094 263.496094 188.140625 264.796875 188.253906 265.1875 C 188.328125 265.433594 188.371094 265.65625 188.34375 265.714844 C 188.3125 265.753906 188.34375 265.796875 188.390625 265.796875 C 188.453125 265.796875 188.5 265.859375 188.5 265.9375 C 188.5 266.0625 188.746094 266.609375 189.464844 268.171875 C 189.59375 268.453125 189.703125 268.71875 189.703125 268.753906 C 189.703125 268.785156 189.847656 269.140625 190.03125 269.535156 C 190.46875 270.46875 190.628906 270.96875 190.535156 271.109375 C 190.496094 271.1875 190.503906 271.203125 190.597656 271.152344 C 190.703125 271.09375 190.71875 271.140625 190.671875 271.40625 C 190.578125 271.953125 190.316406 272.484375 190.066406 272.652344 C 189.609375 272.953125 187.8125 272.84375 187.597656 272.5 C 187.5625 272.4375 187.5 272.390625 187.464844 272.40625 C 187.328125 272.453125 186.214844 271.871094 186.253906 271.78125 C 186.285156 271.746094 186.234375 271.734375 186.140625 271.765625 C 186.035156 271.8125 185.996094 271.785156 186.03125 271.746094 C 186.0625 271.683594 186 271.640625 185.902344 271.628906 C 185.796875 271.621094 185.503906 271.515625 185.253906 271.402344 C 185.003906 271.285156 184.671875 271.171875 184.5 271.140625 C 184.328125 271.097656 184.234375 271.03125 184.265625 270.96875 C 184.296875 270.921875 184.285156 270.902344 184.234375 270.933594 C 184.183594 270.96875 183.796875 270.902344 183.390625 270.78125 C 180.765625 270.035156 179.234375 270.035156 176.609375 270.78125 C 176.203125 270.902344 175.816406 270.96875 175.765625 270.933594 C 175.714844 270.902344 175.703125 270.921875 175.734375 270.96875 C 175.765625 271.03125 175.671875 271.097656 175.5 271.140625 C 175.328125 271.171875 174.996094 271.285156 174.746094 271.402344 C 174.496094 271.515625 174.203125 271.621094 174.097656 271.628906 C 174 271.640625 173.9375 271.683594 173.96875 271.746094 C 174.003906 271.785156 173.964844 271.8125 173.859375 271.765625 C 173.765625 271.734375 173.71875 271.746094 173.75 271.785156 C 173.78125 271.84375 173.703125 271.921875 173.578125 271.964844 C 173.453125 272 173.246094 272.109375 173.097656 272.214844 C 172.964844 272.3125 172.753906 272.402344 172.652344 272.421875 C 172.535156 272.4375 172.421875 272.496094 172.390625 272.535156 C 172.140625 272.878906 169.746094 272.9375 169.953125 272.59375 C 169.996094 272.535156 169.9375 272.5 169.859375 272.5 C 169.6875 272.5 169.421875 271.9375 169.328125 271.40625 C 169.28125 271.140625 169.296875 271.09375 169.402344 271.152344 C 169.496094 271.203125 169.503906 271.1875 169.464844 271.109375 C 169.371094 270.96875 169.53125 270.46875 169.96875 269.535156 C 170.152344 269.140625 170.296875 268.785156 170.296875 268.753906 C 170.296875 268.71875 170.40625 268.453125 170.535156 268.171875 C 171.253906 266.609375 171.5 266.0625 171.5 265.9375 C 171.5 265.859375 171.546875 265.796875 171.609375 265.796875 C 171.65625 265.796875 171.6875 265.753906 171.65625 265.714844 C 171.628906 265.65625 171.671875 265.433594 171.746094 265.1875 C 171.816406 264.953125 171.964844 264.34375 172.046875 263.847656 C 172.152344 263.347656 172.28125 262.628906 172.359375 262.25 C 173.03125 258.746094 173.121094 257.503906 172.902344 254.796875 C 172.847656 254.171875 172.78125 252.816406 172.75 251.796875 C 172.6875 249.714844 172.65625 249.535156 172.21875 247.503906 C 172.203125 247.378906 172.214844 247.25 172.253906 247.214844 C 172.3125 247.183594 172.433594 247.03125 172.515625 246.878906 C 172.683594 246.640625 172.683594 246.578125 172.535156 246.078125 C 172.453125 245.785156 172.34375 245.5 172.285156 245.4375 C 172.246094 245.378906 172.234375 245.296875 172.265625 245.253906 C 172.3125 245.21875 172.285156 245.15625 172.234375 245.121094 C 172.109375 245.035156 171.203125 243.253906 171.203125 243.097656 C 171.203125 243 170.464844 241.933594 170.128906 241.546875 C 170.03125 241.4375 169.734375 241.171875 169.453125 240.953125 C 169.183594 240.734375 168.933594 240.53125 168.902344 240.5 C 168.871094 240.46875 168.535156 240.25 168.15625 240 C 167.78125 239.753906 167.40625 239.5 167.34375 239.433594 C 167.265625 239.347656 167.183594 239.296875 167.152344 239.296875 C 167.121094 239.3125 166.859375 239.203125 166.566406 239.066406 C 165.28125 238.464844 164.902344 238.390625 162.847656 238.359375 C 161.109375 238.328125 161.015625 238.3125 160.296875 238.015625 C 159.453125 237.683594 157.15625 236.902344 157.035156 236.902344 C 156.996094 236.90625 156.8125 236.96875 156.652344 237.035156 Z M 156.652344 237.035156 "/>
<path style=" stroke:none;fill-rule:nonzero;fill:rgb(0%,0%,0%);fill-opacity:1;" d="M 164 244.183594 C 163.15625 244.296875 162.765625 244.421875 162.046875 244.753906 C 161.296875 245.121094 160.828125 245.296875 160.5 245.347656 C 160.46875 245.347656 160.285156 245.453125 160.097656 245.546875 C 159.90625 245.65625 159.65625 245.785156 159.546875 245.847656 C 159.4375 245.90625 159.34375 246.03125 159.316406 246.121094 C 159.253906 246.453125 161.28125 248.621094 162.316406 249.347656 C 162.578125 249.53125 162.753906 249.714844 162.71875 249.75 C 162.683594 249.796875 162.703125 249.796875 162.765625 249.765625 C 162.828125 249.734375 163.34375 249.921875 163.90625 250.203125 C 164.46875 250.46875 165.03125 250.703125 165.140625 250.703125 C 165.347656 250.703125 166.109375 250.933594 166.597656 251.128906 C 166.746094 251.1875 166.871094 251.246094 166.902344 251.253906 C 166.933594 251.265625 167.046875 251.3125 167.183594 251.347656 C 167.296875 251.390625 167.402344 251.464844 167.402344 251.5 C 167.402344 251.535156 167.597656 251.683594 167.847656 251.8125 C 168.097656 251.9375 168.296875 252.078125 168.296875 252.121094 C 168.296875 252.171875 168.34375 252.203125 168.402344 252.203125 C 168.503906 252.203125 169.71875 253 169.816406 253.140625 C 169.902344 253.25 170.609375 253.296875 170.546875 253.1875 C 170.515625 253.152344 170.535156 253.09375 170.59375 253.046875 C 170.734375 252.96875 170.078125 250.921875 169.796875 250.546875 C 169.753906 250.496094 169.671875 250.265625 169.597656 250.046875 C 169.53125 249.828125 169.4375 249.609375 169.390625 249.546875 C 169.34375 249.5 169.296875 249.359375 169.296875 249.25 C 169.296875 249.128906 169.234375 248.902344 169.152344 248.734375 C 169.066406 248.566406 168.996094 248.347656 168.96875 248.246094 C 168.953125 248.09375 168.628906 247.128906 168.316406 246.296875 C 168.285156 246.21875 168.28125 246.109375 168.285156 246.066406 C 168.296875 245.996094 168.285156 245.96875 167.753906 245.347656 C 167.566406 245.128906 167.4375 244.921875 167.46875 244.871094 C 167.496094 244.828125 167.484375 244.8125 167.433594 244.816406 C 167.390625 244.828125 167.171875 244.71875 166.953125 244.578125 C 166.578125 244.328125 165.496094 243.984375 165.1875 244.003906 C 165.109375 244.015625 164.578125 244.09375 164 244.183594 Z M 165 245.203125 C 166.15625 245.316406 166.683594 245.515625 166.871094 245.902344 C 167.152344 246.464844 166.933594 247.371094 166.378906 247.859375 C 166.066406 248.15625 165.296875 248.402344 164.6875 248.402344 C 163.265625 248.402344 162.0625 246.734375 162.65625 245.59375 C 162.828125 245.25 163.316406 245 163.703125 245.046875 C 163.84375 245.078125 164.421875 245.140625 165 245.203125 Z M 165 245.203125 "/>
<path style=" stroke:none;fill-rule:nonzero;fill:rgb(0%,0%,0%);fill-opacity:1;" d="M 164.390625 245.96875 C 164.25 246.347656 164.359375 246.6875 164.671875 246.8125 C 165.21875 247.015625 166 246.609375 166 246.097656 C 166 245.78125 165.828125 245.703125 165.015625 245.703125 C 164.535156 245.703125 164.496094 245.71875 164.390625 245.96875 Z M 164.390625 245.96875 "/>
<path style=" stroke:none;fill-rule:nonzero;fill:rgb(0%,0%,0%);fill-opacity:1;" d="M 193.933594 244.1875 C 193.59375 244.285156 193.246094 244.433594 193.152344 244.5 C 193.066406 244.566406 193 244.59375 193 244.535156 C 193 244.496094 192.933594 244.5625 192.84375 244.683594 C 192.753906 244.796875 192.640625 244.871094 192.578125 244.84375 C 192.515625 244.796875 192.496094 244.8125 192.53125 244.859375 C 192.5625 244.90625 192.433594 245.128906 192.246094 245.347656 C 191.714844 245.96875 191.703125 245.996094 191.714844 246.066406 C 191.71875 246.109375 191.714844 246.21875 191.683594 246.296875 C 191.652344 246.378906 191.5 246.8125 191.347656 247.25 C 191.203125 247.6875 191.0625 248.121094 191.015625 248.203125 C 190.996094 248.28125 190.984375 248.390625 190.996094 248.4375 C 191 248.484375 190.9375 248.628906 190.847656 248.753906 C 190.765625 248.890625 190.703125 249.09375 190.703125 249.203125 C 190.703125 249.3125 190.65625 249.484375 190.597656 249.578125 C 190.402344 249.9375 189.671875 251.765625 189.5 252.371094 C 189.390625 252.746094 189.347656 253.015625 189.40625 253.0625 C 189.464844 253.09375 189.484375 253.152344 189.453125 253.1875 C 189.390625 253.296875 190.097656 253.25 190.183594 253.140625 C 190.28125 253 191.496094 252.203125 191.597656 252.203125 C 191.65625 252.203125 191.703125 252.15625 191.703125 252.109375 C 191.703125 252.0625 191.828125 251.96875 191.996094 251.902344 C 192.152344 251.84375 192.359375 251.714844 192.464844 251.609375 C 192.8125 251.285156 194.359375 250.703125 194.859375 250.703125 C 194.96875 250.703125 195.53125 250.46875 196.09375 250.203125 C 196.65625 249.921875 197.171875 249.734375 197.234375 249.765625 C 197.296875 249.796875 197.316406 249.796875 197.28125 249.75 C 197.246094 249.714844 197.378906 249.5625 197.597656 249.40625 C 198.640625 248.714844 200.75 246.464844 200.683594 246.121094 C 200.652344 245.996094 199.5 245.234375 199.5 245.347656 C 199.5 245.433594 198.828125 245.171875 197.953125 244.75 C 197.066406 244.34375 196.8125 244.28125 194.902344 244.046875 C 194.714844 244.015625 194.265625 244.09375 193.933594 244.1875 Z M 196.847656 245.140625 C 197.496094 245.40625 197.714844 246.378906 197.28125 247.09375 C 196.75 247.96875 196.109375 248.402344 195.3125 248.402344 C 193.902344 248.402344 192.90625 247.53125 193.015625 246.378906 C 193.109375 245.53125 193.390625 245.371094 195.253906 245.15625 C 195.90625 245.078125 196.464844 245.015625 196.484375 245.003906 C 196.496094 245.003906 196.65625 245.0625 196.847656 245.140625 Z M 196.847656 245.140625 "/>
<path style=" stroke:none;fill-rule:nonzero;fill:rgb(0%,0%,0%);fill-opacity:1;" d="M 194.183594 245.765625 C 193.902344 245.84375 193.953125 246.347656 194.25 246.59375 C 195.015625 247.183594 195.90625 246.78125 195.609375 245.96875 C 195.503906 245.71875 195.46875 245.703125 194.933594 245.714844 C 194.609375 245.71875 194.265625 245.746094 194.183594 245.765625 Z M 194.183594 245.765625 "/>
<path style=" stroke:none;fill-rule:nonzero;fill:rgb(0%,0%,0%);fill-opacity:1;" d="M 154.421875 252.28125 C 154.3125 252.390625 154.183594 252.453125 154.140625 252.421875 C 154.097656 252.378906 154.097656 252.402344 154.128906 252.464844 C 154.15625 252.515625 154.078125 252.734375 153.9375 252.933594 C 153.8125 253.128906 153.6875 253.316406 153.6875 253.347656 C 153.6875 253.371094 153.597656 253.609375 153.496094 253.871094 C 152.90625 255.203125 152.597656 256.546875 152.597656 257.753906 C 152.597656 258.609375 153.066406 262 153.453125 263.859375 C 153.683594 264.996094 154.390625 266.953125 154.714844 267.359375 C 154.753906 267.421875 154.964844 267.796875 155.152344 268.1875 C 155.34375 268.578125 155.535156 268.902344 155.597656 268.902344 C 155.652344 268.902344 155.703125 268.984375 155.703125 269.078125 C 155.703125 269.183594 155.78125 269.347656 155.878906 269.464844 C 155.984375 269.5625 157.28125 270.253906 158.753906 271 C 160.246094 271.746094 161.46875 272.378906 161.5 272.40625 C 161.53125 272.4375 161.714844 272.515625 161.902344 272.597656 C 162.09375 272.671875 162.359375 272.8125 162.5 272.902344 C 162.640625 272.996094 162.859375 273.109375 163 273.183594 C 163.140625 273.246094 163.316406 273.34375 163.402344 273.390625 C 163.484375 273.453125 163.734375 273.566406 163.953125 273.671875 C 164.171875 273.753906 164.378906 273.878906 164.40625 273.933594 C 164.4375 273.984375 164.5 274.003906 164.535156 274 C 164.566406 274 164.953125 274.152344 165.359375 274.347656 C 165.78125 274.546875 166.183594 274.6875 166.25 274.65625 C 166.40625 274.597656 166.328125 274.21875 166.171875 274.234375 C 166.046875 274.246094 165.285156 273.902344 165.203125 273.785156 C 165.171875 273.753906 165 273.671875 164.828125 273.59375 C 164.652344 273.503906 164.5 273.421875 164.5 273.378906 C 164.5 273.328125 164.421875 273.296875 164.3125 273.296875 C 164.214844 273.296875 164.066406 273.246094 164.003906 273.15625 C 163.859375 272.984375 163.847656 270.621094 164 269.097656 C 164.0625 268.46875 164.171875 267.265625 164.25 266.4375 C 164.328125 265.621094 164.464844 264.597656 164.546875 264.1875 C 164.753906 263.121094 164.785156 262.28125 164.597656 262.121094 C 164.496094 262.015625 164.496094 262 164.59375 262.0625 C 164.683594 262.109375 164.714844 262.09375 164.65625 262.003906 C 164.621094 261.953125 164.546875 261.921875 164.5 261.953125 C 164.453125 261.984375 164.390625 261.964844 164.359375 261.90625 C 164.316406 261.859375 164.21875 261.828125 164.121094 261.847656 C 164.03125 261.871094 163.902344 261.890625 163.84375 261.890625 C 163.78125 261.902344 163.546875 262.0625 163.328125 262.25 C 163.109375 262.4375 162.902344 262.566406 162.859375 262.546875 C 162.828125 262.515625 162.816406 262.53125 162.847656 262.566406 C 162.902344 262.628906 162.421875 263.097656 161.75 263.652344 C 161.3125 264.003906 160.746094 264.234375 160.46875 264.140625 C 160.09375 264.015625 158.703125 262.4375 158.703125 262.128906 C 158.703125 262.0625 158.671875 262 158.621094 262 C 158.578125 262 158.402344 261.734375 158.21875 261.402344 C 158.03125 261.066406 157.90625 260.796875 157.953125 260.796875 C 157.984375 260.796875 157.9375 260.703125 157.859375 260.566406 C 157.714844 260.347656 157.109375 258.796875 157.046875 258.46875 C 157.03125 258.378906 156.996094 258.253906 156.953125 258.214844 C 156.878906 258.078125 156.046875 255.183594 155.953125 254.671875 C 155.933594 254.578125 155.765625 254.234375 155.609375 253.902344 C 155.4375 253.566406 155.316406 253.296875 155.347656 253.296875 C 155.421875 253.296875 155.03125 252.597656 154.8125 252.3125 L 154.628906 252.066406 Z M 154.421875 252.28125 "/>
<path style=" stroke:none;fill-rule:nonzero;fill:rgb(0%,0%,0%);fill-opacity:1;" d="M 205.140625 252.378906 C 204.96875 252.628906 204.683594 253.183594 204.65625 253.296875 C 204.640625 253.378906 204.296875 254.128906 204.1875 254.34375 C 204.128906 254.4375 204.066406 254.597656 204.046875 254.6875 C 204.03125 254.78125 203.921875 255.214844 203.796875 255.652344 C 203.347656 257.28125 203.097656 258.109375 203 258.296875 C 202.9375 258.40625 202.90625 258.5 202.9375 258.5 C 203.003906 258.5 202.214844 260.515625 202.078125 260.671875 C 202.015625 260.746094 202.003906 260.796875 202.035156 260.796875 C 202.078125 260.796875 201.96875 261.066406 201.78125 261.402344 C 201.597656 261.734375 201.421875 262 201.378906 262 C 201.328125 262 201.296875 262.0625 201.296875 262.140625 C 201.296875 262.433594 199.878906 264.03125 199.53125 264.140625 C 199.253906 264.234375 198.683594 264 198.25 263.652344 C 197.578125 263.097656 197.097656 262.628906 197.152344 262.566406 C 197.183594 262.53125 197.171875 262.515625 197.140625 262.546875 C 197.097656 262.566406 196.890625 262.4375 196.671875 262.25 C 196.453125 262.0625 196.203125 261.890625 196.128906 261.890625 C 196.0625 261.878906 195.9375 261.871094 195.878906 261.859375 C 195.8125 261.847656 195.6875 261.890625 195.609375 261.9375 C 195.53125 262 195.453125 262.035156 195.421875 262.015625 C 195.246094 261.933594 195.253906 263.296875 195.453125 264.214844 C 195.53125 264.597656 195.671875 265.597656 195.75 266.4375 C 195.828125 267.265625 195.9375 268.46875 196 269.097656 C 196.152344 270.621094 196.140625 272.984375 195.996094 273.15625 C 195.933594 273.246094 195.785156 273.296875 195.6875 273.296875 C 195.578125 273.296875 195.5 273.34375 195.5 273.390625 C 195.5 273.4375 195.421875 273.5 195.328125 273.535156 C 195.234375 273.566406 194.859375 273.75 194.503906 273.9375 C 194.15625 274.140625 193.84375 274.265625 193.796875 274.25 C 193.703125 274.1875 193.578125 274.496094 193.65625 274.609375 C 193.746094 274.75 193.859375 274.71875 194.652344 274.347656 C 195.0625 274.152344 195.433594 274 195.464844 274 C 195.5 274.003906 195.5625 273.984375 195.59375 273.933594 C 195.65625 273.84375 196.25 273.53125 200.785156 271.246094 C 202.566406 270.328125 204.09375 269.515625 204.15625 269.421875 C 204.234375 269.328125 204.296875 269.171875 204.296875 269.066406 C 204.296875 268.984375 204.34375 268.902344 204.390625 268.902344 C 204.503906 268.902344 205.253906 267.484375 205.847656 266.140625 C 206.34375 265.015625 206.621094 263.785156 207.046875 260.953125 C 207.566406 257.4375 207.46875 256.046875 206.546875 253.964844 C 206.40625 253.652344 206.296875 253.378906 206.296875 253.347656 C 206.296875 253.316406 206.1875 253.128906 206.0625 252.933594 C 205.921875 252.734375 205.84375 252.515625 205.871094 252.46875 C 205.902344 252.40625 205.878906 252.402344 205.816406 252.4375 C 205.75 252.484375 205.703125 252.46875 205.703125 252.40625 C 205.703125 252.347656 205.609375 252.253906 205.503906 252.214844 C 205.359375 252.121094 205.285156 252.152344 205.140625 252.378906 Z M 205.140625 252.378906 "/>
<path style=" stroke:none;fill-rule:nonzero;fill:rgb(0%,0%,0%);fill-opacity:1;" d="M 178.847656 271.953125 C 178.40625 272.015625 177.878906 272.097656 177.65625 272.140625 C 177.453125 272.171875 176.964844 272.316406 176.5625 272.453125 C 176.171875 272.59375 175.8125 272.71875 175.75 272.734375 C 175.703125 272.75 175.285156 272.9375 174.847656 273.152344 C 174.15625 273.484375 173.84375 273.683594 173.347656 274.09375 C 173.140625 274.265625 172.484375 275.046875 172.203125 275.453125 C 172.03125 275.6875 171.816406 275.964844 171.734375 276.0625 C 171.628906 276.15625 171.546875 276.253906 171.546875 276.285156 C 171.535156 276.316406 171.496094 276.4375 171.433594 276.546875 C 171.378906 276.65625 171.25 277.246094 171.152344 277.847656 C 170.933594 279.203125 170.984375 280.597656 171.28125 281.371094 C 171.390625 281.65625 171.464844 281.902344 171.433594 281.902344 C 171.40625 281.902344 171.464844 281.96875 171.546875 282.0625 C 171.640625 282.15625 171.6875 282.3125 171.671875 282.421875 C 171.640625 282.515625 171.65625 282.578125 171.714844 282.546875 C 171.753906 282.503906 171.890625 282.640625 172 282.816406 C 172.433594 283.535156 172.90625 284.097656 173.09375 284.097656 C 173.15625 284.097656 173.1875 284.128906 173.171875 284.171875 C 173.140625 284.21875 173.21875 284.34375 173.328125 284.453125 C 173.4375 284.5625 173.496094 284.578125 173.453125 284.5 C 173.402344 284.421875 173.671875 284.640625 174.035156 285 C 174.40625 285.359375 174.78125 285.714844 174.847656 285.78125 C 175.003906 285.921875 175.84375 286.5 176.683594 287.046875 C 176.964844 287.246094 177.203125 287.453125 177.203125 287.5 C 177.203125 287.5625 177.246094 287.59375 177.28125 287.5625 C 177.328125 287.53125 177.46875 287.597656 177.59375 287.714844 C 177.902344 288 178.59375 288.285156 179 288.3125 C 179.25 288.316406 179.1875 288.347656 178.75 288.40625 C 177.296875 288.621094 176.796875 288.746094 175.371094 289.21875 C 174.03125 289.671875 173.785156 289.71875 173.25 289.671875 C 172.921875 289.640625 172.515625 289.566406 172.347656 289.5 C 172.1875 289.4375 172.03125 289.378906 172 289.378906 C 171.96875 289.378906 171.785156 289.296875 171.597656 289.203125 C 171.402344 289.097656 170.996094 288.953125 170.6875 288.859375 C 170.378906 288.765625 169.714844 288.46875 169.1875 288.1875 C 168.671875 287.921875 168.25 287.703125 168.25 287.714844 C 168.25 287.71875 168.152344 287.703125 168.015625 287.65625 C 167.902344 287.621094 167.828125 287.535156 167.859375 287.484375 C 167.902344 287.40625 167.878906 287.402344 167.816406 287.4375 C 167.703125 287.503906 167.40625 287.390625 167.183594 287.171875 C 167.109375 287.097656 166.84375 286.921875 166.578125 286.765625 C 166.265625 286.59375 166.097656 286.421875 166.097656 286.296875 C 166.097656 286.203125 166.046875 286.078125 165.996094 286.035156 C 165.933594 286.003906 165.902344 285.890625 165.933594 285.785156 C 165.964844 285.683594 165.953125 285.621094 165.90625 285.640625 C 165.84375 285.6875 165.578125 285.09375 165.546875 284.796875 C 165.535156 284.71875 165.464844 284.484375 165.371094 284.253906 C 165.265625 284.046875 165.203125 283.828125 165.203125 283.765625 C 165.203125 283.714844 165.078125 283.28125 164.9375 282.8125 C 164.597656 281.6875 164.566406 281.714844 166.21875 281.640625 C 166.765625 281.621094 167 281.546875 167 281.40625 C 167 281.140625 165.683594 281.097656 164.878906 281.359375 C 164.714844 281.40625 164.683594 281.390625 164.734375 281.253906 C 164.765625 281.171875 164.75 281.109375 164.683594 281.128906 C 164.566406 281.152344 164.316406 280.34375 164.40625 280.25 C 164.4375 280.234375 164.796875 280.203125 165.234375 280.1875 C 166.035156 280.171875 166.328125 280.03125 166.046875 279.796875 C 165.953125 279.714844 165.609375 279.683594 165.015625 279.6875 L 164.140625 279.714844 L 164.003906 279.285156 C 163.9375 279.046875 163.816406 278.753906 163.734375 278.640625 C 163.597656 278.4375 163.597656 278.421875 163.765625 278.453125 C 163.871094 278.46875 164.34375 278.535156 164.816406 278.609375 C 165.296875 278.683594 165.671875 278.753906 165.652344 278.796875 C 165.597656 278.878906 166.09375 278.921875 166.214844 278.84375 C 166.390625 278.746094 166.09375 278.40625 165.734375 278.3125 C 165.53125 278.25 164.933594 278.152344 164.378906 278.09375 C 163.4375 277.96875 163.390625 277.953125 163.214844 277.65625 C 162.65625 276.78125 161.964844 276.453125 161.28125 276.753906 C 161.078125 276.847656 160.90625 276.953125 160.921875 276.996094 C 160.921875 277.015625 160.871094 277.1875 160.796875 277.359375 L 160.671875 277.671875 L 159.0625 277.671875 C 155.890625 277.6875 154.0625 277.785156 153.902344 277.96875 C 153.816406 278.0625 153.8125 278.097656 153.878906 278.0625 C 153.9375 278.015625 154 278.035156 154 278.097656 C 154 278.1875 154.847656 278.203125 157.285156 278.15625 L 160.578125 278.09375 L 160.703125 278.597656 C 160.765625 278.878906 160.933594 279.3125 161.0625 279.5625 L 161.285156 280 L 160.921875 280.015625 C 160.71875 280.03125 160.378906 280.046875 160.171875 280.0625 C 159.734375 280.066406 159.5 280.246094 159.671875 280.40625 C 159.75 280.496094 160.097656 280.503906 160.703125 280.484375 L 161.609375 280.4375 L 162.109375 280.984375 C 162.4375 281.34375 162.59375 281.578125 162.546875 281.6875 C 162.515625 281.765625 162.515625 281.8125 162.5625 281.765625 C 162.652344 281.683594 162.90625 281.902344 162.84375 282.003906 C 162.8125 282.0625 162.84375 282.097656 162.890625 282.097656 C 163.078125 282.097656 163.003906 282.25 162.765625 282.359375 C 162.253906 282.597656 160.796875 283.390625 160.597656 283.53125 C 160.421875 283.65625 160.40625 283.6875 160.546875 283.796875 C 160.683594 283.90625 160.796875 283.878906 161.28125 283.640625 C 161.59375 283.484375 161.878906 283.359375 161.933594 283.378906 C 161.96875 283.390625 162 283.359375 162 283.3125 C 162 283.214844 162.683594 282.871094 162.871094 282.871094 C 162.9375 282.871094 162.96875 282.828125 162.953125 282.785156 C 162.921875 282.75 162.964844 282.703125 163.035156 282.671875 C 163.246094 282.59375 163.765625 283.234375 164.0625 283.878906 C 164.1875 284.15625 164.296875 284.433594 164.3125 284.484375 C 164.3125 284.515625 164.40625 284.683594 164.53125 284.847656 C 164.84375 285.265625 165.234375 286 165.140625 286 C 165.097656 286 165.1875 286.09375 165.34375 286.214844 C 165.484375 286.316406 165.597656 286.46875 165.597656 286.53125 C 165.609375 286.75 168.066406 288.253906 168.566406 288.359375 C 168.640625 288.371094 168.816406 288.46875 168.96875 288.566406 C 169.328125 288.816406 170.453125 289.285156 170.84375 289.371094 C 170.9375 289.390625 171.140625 289.464844 171.285156 289.535156 C 171.796875 289.796875 172.453125 290.078125 172.734375 290.140625 C 173.152344 290.246094 173.816406 290.6875 173.746094 290.816406 C 173.703125 290.890625 173.714844 290.902344 173.78125 290.859375 C 173.84375 290.816406 174 290.859375 174.121094 290.933594 C 174.816406 291.371094 176.785156 291.859375 179.183594 292.203125 C 180.09375 292.34375 180.609375 292.28125 182.953125 291.84375 C 184.203125 291.597656 185.402344 291.234375 185.878906 290.933594 C 186 290.859375 186.15625 290.816406 186.21875 290.859375 C 186.285156 290.902344 186.296875 290.890625 186.253906 290.816406 C 186.183594 290.6875 186.847656 290.246094 187.265625 290.140625 C 187.546875 290.078125 188.203125 289.796875 188.714844 289.535156 C 188.859375 289.464844 189.0625 289.390625 189.15625 289.371094 C 189.265625 289.347656 189.464844 289.285156 189.597656 289.234375 C 189.746094 289.171875 190.046875 289.035156 190.296875 288.9375 C 190.546875 288.84375 190.871094 288.683594 191.003906 288.59375 C 191.152344 288.496094 191.316406 288.402344 191.390625 288.378906 C 191.953125 288.246094 194.402344 286.746094 194.402344 286.53125 C 194.402344 286.46875 194.515625 286.316406 194.65625 286.214844 C 194.8125 286.09375 194.902344 286 194.859375 286 C 194.765625 286 195.15625 285.265625 195.484375 284.828125 C 195.609375 284.65625 195.714844 284.496094 195.714844 284.464844 C 195.714844 284.433594 195.8125 284.15625 195.9375 283.878906 C 196.234375 283.234375 196.753906 282.59375 196.964844 282.671875 C 197.035156 282.703125 197.078125 282.75 197.046875 282.785156 C 197.03125 282.828125 197.0625 282.871094 197.128906 282.871094 C 197.347656 282.871094 198 283.1875 198 283.285156 C 198 283.347656 198.03125 283.390625 198.078125 283.378906 C 198.121094 283.359375 198.40625 283.484375 198.71875 283.640625 C 199.203125 283.878906 199.316406 283.90625 199.453125 283.796875 C 199.59375 283.6875 199.578125 283.652344 199.378906 283.515625 C 199.097656 283.316406 197.640625 282.53125 197.28125 282.371094 C 197 282.253906 196.902344 282.097656 197.097656 282.097656 C 197.15625 282.097656 197.1875 282.066406 197.183594 282.015625 C 197.140625 281.90625 197.734375 281.097656 198.09375 280.75 C 198.402344 280.46875 198.4375 280.464844 199.378906 280.453125 C 200.171875 280.453125 200.347656 280.421875 200.347656 280.296875 C 200.347656 280.1875 200.15625 280.128906 199.53125 280.066406 L 198.71875 279.984375 L 198.953125 279.546875 C 199.066406 279.3125 199.234375 278.878906 199.296875 278.597656 L 199.421875 278.097656 L 202.84375 278.152344 C 205.1875 278.1875 206.203125 278.183594 206.097656 278.109375 C 206.015625 278.046875 205.996094 278 206.035156 278 C 206.097656 278 206.097656 277.964844 206.035156 277.902344 C 205.9375 277.796875 203.4375 277.683594 200.9375 277.671875 L 199.328125 277.671875 L 199.203125 277.359375 C 199.128906 277.1875 199.078125 277.015625 199.078125 276.996094 C 199.09375 276.953125 198.921875 276.847656 198.71875 276.753906 C 198.035156 276.453125 197.34375 276.78125 196.796875 277.65625 C 196.621094 277.953125 196.546875 277.96875 195.628906 278.09375 C 195.09375 278.15625 194.484375 278.253906 194.28125 278.3125 C 193.90625 278.40625 193.609375 278.734375 193.785156 278.84375 C 193.90625 278.921875 194.402344 278.871094 194.347656 278.785156 C 194.316406 278.753906 194.703125 278.671875 195.183594 278.597656 C 195.65625 278.535156 196.128906 278.464844 196.234375 278.453125 C 196.402344 278.421875 196.402344 278.4375 196.265625 278.640625 C 196.183594 278.753906 196.0625 279.046875 195.996094 279.285156 L 195.859375 279.714844 L 194.984375 279.6875 C 194.066406 279.671875 193.65625 279.796875 193.902344 280.035156 C 194.03125 280.171875 194.03125 280.171875 194.902344 280.1875 C 195.566406 280.203125 195.597656 280.214844 195.597656 280.4375 C 195.597656 280.785156 195.421875 281.21875 195.296875 281.152344 C 195.246094 281.109375 195.234375 281.15625 195.265625 281.253906 C 195.316406 281.390625 195.285156 281.40625 195.121094 281.359375 C 194.316406 281.097656 193 281.140625 193 281.40625 C 193 281.535156 193.464844 281.714844 193.628906 281.640625 C 193.8125 281.578125 195.109375 281.765625 195.21875 281.878906 C 195.28125 281.9375 195.214844 282.296875 195.0625 282.816406 C 194.921875 283.28125 194.796875 283.714844 194.796875 283.765625 C 194.796875 283.828125 194.734375 284.046875 194.628906 284.253906 C 194.535156 284.484375 194.464844 284.71875 194.453125 284.796875 C 194.40625 285.140625 194.183594 285.703125 194.09375 285.652344 C 194.035156 285.609375 194.03125 285.65625 194.0625 285.746094 C 194.09375 285.816406 194.035156 285.996094 193.964844 286.121094 C 193.871094 286.253906 193.828125 286.390625 193.859375 286.421875 C 193.953125 286.503906 193.535156 286.714844 193.453125 286.621094 C 193.402344 286.578125 193.402344 286.597656 193.4375 286.671875 C 193.46875 286.746094 193.421875 286.8125 193.3125 286.847656 C 193.214844 286.878906 193 287.003906 192.84375 287.152344 C 192.6875 287.28125 192.53125 287.371094 192.484375 287.34375 C 192.4375 287.3125 192.402344 287.34375 192.402344 287.402344 C 192.402344 287.46875 192.328125 287.496094 192.246094 287.464844 C 192.15625 287.433594 192.121094 287.4375 192.152344 287.496094 C 192.203125 287.566406 191.996094 287.683594 191.652344 287.753906 C 191.597656 287.765625 191.1875 287.984375 190.75 288.21875 C 190.3125 288.464844 189.683594 288.734375 189.347656 288.84375 C 189.015625 288.9375 188.566406 289.121094 188.347656 289.234375 C 188.128906 289.34375 187.933594 289.433594 187.902344 289.433594 C 187.871094 289.433594 187.746094 289.46875 187.597656 289.515625 C 187.464844 289.578125 187.078125 289.640625 186.75 289.671875 C 186.214844 289.71875 185.96875 289.671875 184.628906 289.21875 C 183.203125 288.746094 182.703125 288.621094 181.25 288.40625 C 180.871094 288.359375 180.765625 288.316406 180.984375 288.3125 C 181.390625 288.296875 181.902344 288.09375 182.328125 287.753906 C 182.515625 287.621094 182.703125 287.53125 182.734375 287.566406 C 182.765625 287.597656 182.796875 287.578125 182.796875 287.515625 C 182.796875 287.40625 183.503906 286.878906 184.183594 286.5 C 184.328125 286.421875 184.496094 286.296875 184.546875 286.25 C 184.609375 286.1875 184.828125 286.015625 185.035156 285.847656 C 185.25 285.6875 185.683594 285.285156 186.003906 284.96875 C 186.328125 284.652344 186.597656 284.40625 186.597656 284.453125 C 186.597656 284.484375 186.65625 284.453125 186.746094 284.378906 C 186.816406 284.3125 186.859375 284.21875 186.828125 284.171875 C 186.8125 284.128906 186.84375 284.097656 186.90625 284.097656 C 187.09375 284.097656 187.566406 283.535156 188 282.816406 C 188.109375 282.640625 188.246094 282.503906 188.285156 282.546875 C 188.34375 282.578125 188.359375 282.515625 188.328125 282.421875 C 188.3125 282.3125 188.359375 282.15625 188.453125 282.0625 C 188.535156 281.96875 188.59375 281.902344 188.566406 281.902344 C 188.535156 281.902344 188.609375 281.65625 188.71875 281.371094 C 189.015625 280.597656 189.066406 279.203125 188.847656 277.847656 C 188.75 277.246094 188.621094 276.65625 188.566406 276.546875 C 188.503906 276.4375 188.464844 276.328125 188.453125 276.296875 C 188.453125 276.265625 188.328125 276.109375 188.183594 275.953125 C 188.015625 275.785156 187.902344 275.609375 187.902344 275.546875 C 187.902344 275.5 187.734375 275.265625 187.515625 275.046875 C 187.316406 274.816406 187.035156 274.503906 186.890625 274.347656 C 186.75 274.183594 186.503906 273.953125 186.34375 273.828125 C 186.078125 273.621094 184.5 272.796875 184.25 272.746094 C 184.203125 272.71875 183.84375 272.597656 183.453125 272.464844 C 182.6875 272.1875 182.652344 272.183594 181.128906 271.953125 C 179.964844 271.78125 179.933594 271.78125 178.847656 271.953125 Z M 178.847656 271.953125 "/>
<path style=" stroke:none;fill-rule:nonzero;fill:rgb(0%,0%,0%);fill-opacity:1;" d="M 154.871094 273.3125 C 154.84375 273.421875 154.859375 273.484375 154.902344 273.453125 C 154.953125 273.421875 155.003906 273.4375 155.046875 273.5 C 155.09375 273.5625 155.753906 273.597656 156.78125 273.597656 C 157.703125 273.597656 158.734375 273.652344 159.066406 273.703125 C 159.640625 273.796875 160.921875 274.1875 161.652344 274.5 C 161.816406 274.566406 161.984375 274.628906 162.03125 274.621094 C 162.066406 274.609375 162.097656 274.640625 162.097656 274.683594 C 162.097656 274.734375 162.15625 274.765625 162.234375 274.765625 C 162.359375 274.765625 163.90625 275.683594 164 275.8125 C 164.03125 275.847656 164.40625 276.046875 164.847656 276.25 C 165.285156 276.464844 165.671875 276.652344 165.703125 276.6875 C 165.734375 276.71875 165.8125 276.753906 165.890625 276.78125 C 166.515625 276.921875 166.597656 276.921875 166.597656 276.785156 C 166.597656 276.546875 166.464844 276.433594 166.121094 276.347656 C 165.9375 276.316406 165.816406 276.246094 165.847656 276.1875 C 165.890625 276.140625 165.847656 276.121094 165.78125 276.152344 C 165.59375 276.214844 164.34375 275.546875 164.378906 275.40625 C 164.390625 275.34375 164.359375 275.3125 164.3125 275.347656 C 164.203125 275.40625 163.703125 275.128906 163.566406 274.933594 C 163.515625 274.847656 163.453125 274.816406 163.390625 274.847656 C 163.34375 274.890625 163.296875 274.859375 163.296875 274.785156 C 163.296875 274.71875 163.265625 274.6875 163.246094 274.734375 C 163.203125 274.753906 162.847656 274.609375 162.453125 274.402344 C 162.0625 274.183594 161.65625 274 161.566406 274 C 161.496094 274 161.347656 273.9375 161.28125 273.871094 C 161.214844 273.8125 161.078125 273.746094 161 273.734375 C 160.921875 273.71875 160.402344 273.59375 159.847656 273.453125 C 158.964844 273.214844 158.640625 273.183594 156.878906 273.152344 C 155.03125 273.128906 154.90625 273.140625 154.871094 273.3125 Z M 154.871094 273.3125 "/>
<path style=" stroke:none;fill-rule:nonzero;fill:rgb(0%,0%,0%);fill-opacity:1;" d="M 201.347656 273.214844 C 200.640625 273.296875 199.90625 273.464844 199.402344 273.640625 C 199.15625 273.71875 198.933594 273.765625 198.878906 273.746094 C 198.84375 273.714844 198.796875 273.734375 198.796875 273.785156 C 198.796875 273.847656 198.683594 273.921875 198.53125 273.964844 C 198.371094 273.996094 197.933594 274.203125 197.535156 274.40625 C 197.152344 274.621094 196.796875 274.753906 196.753906 274.734375 C 196.734375 274.6875 196.703125 274.71875 196.703125 274.785156 C 196.703125 274.859375 196.65625 274.890625 196.609375 274.847656 C 196.546875 274.816406 196.484375 274.847656 196.433594 274.933594 C 196.296875 275.128906 195.796875 275.40625 195.6875 275.347656 C 195.640625 275.3125 195.609375 275.34375 195.621094 275.40625 C 195.65625 275.546875 194.40625 276.214844 194.21875 276.152344 C 194.152344 276.121094 194.109375 276.140625 194.152344 276.1875 C 194.183594 276.246094 194.0625 276.316406 193.878906 276.347656 C 193.535156 276.433594 193.402344 276.546875 193.402344 276.785156 C 193.402344 276.921875 193.484375 276.921875 194.109375 276.78125 C 194.1875 276.753906 194.265625 276.71875 194.296875 276.6875 C 194.328125 276.652344 194.714844 276.464844 195.152344 276.25 C 195.59375 276.046875 195.96875 275.847656 196 275.8125 C 196.09375 275.683594 197.640625 274.765625 197.78125 274.765625 C 197.84375 274.765625 197.902344 274.734375 197.902344 274.683594 C 197.902344 274.640625 197.933594 274.609375 197.984375 274.621094 C 198.015625 274.628906 198.1875 274.566406 198.347656 274.5 C 199.128906 274.171875 200.390625 273.785156 200.996094 273.703125 C 201.347656 273.652344 202.378906 273.597656 203.265625 273.597656 C 204.253906 273.597656 204.90625 273.5625 204.953125 273.5 C 204.996094 273.4375 205.046875 273.421875 205.097656 273.453125 C 205.140625 273.484375 205.15625 273.421875 205.140625 273.328125 C 205.09375 273.171875 204.933594 273.152344 203.46875 273.152344 C 202.578125 273.140625 201.628906 273.171875 201.347656 273.214844 Z M 201.347656 273.214844 "/>
</g>
</svg>
